HIERARCHY
ROOT Hips
{
	OFFSET 0.053599 88.859886 3.107447
	CHANNELS 6 Xposition Yposition Zposition Zrotation Yrotation Xrotation 
	JOINT Spine
	{
		OFFSET -0.000000 8.814246 -2.080107
		CHANNELS 3 Zrotation Yrotation Xrotation
		JOINT Spine1
		{
			OFFSET 0.000000 8.844141 0.000000
			CHANNELS 3 Zrotation Yrotation Xrotation
			JOINT Spine2
			{
				OFFSET -0.000000 11.682268 0.000000
				CHANNELS 3 Zrotation Yrotation Xrotation
				JOINT Spine3
				{
					OFFSET 0.000000 11.746700 0.000000
					CHANNELS 3 Zrotation Yrotation Xrotation
					JOINT Neck
					{
						OFFSET -0.000000 17.658264 -0.000000
						CHANNELS 3 Zrotation Yrotation Xrotation
						JOINT Neck1
						{
							OFFSET -0.000000 5.101515 -0.000000
							CHANNELS 3 Zrotation Yrotation Xrotation
							JOINT Head
							{
								OFFSET 0.000000 5.101515 0.000000
								CHANNELS 3 Zrotation Yrotation Xrotation
								JOINT HeadEnd
								{
									OFFSET 0.000000 11.655085 0.000000
									CHANNELS 3 Zrotation Yrotation Xrotation
									End Site
									{
										OFFSET 0.000000 0.000000 0.000000
									}
								}
							}
						}
					}
					JOINT RightShoulder
					{
						OFFSET -2.625389 11.175210 0.000000
						CHANNELS 3 Zrotation Yrotation Xrotation
						JOINT RightArm
						{
							OFFSET -0.000000 10.434715 -0.000000
							CHANNELS 3 Zrotation Yrotation Xrotation
							JOINT RightForeArm
							{
								OFFSET -0.000000 29.628420 0.000000
								CHANNELS 3 Zrotation Yrotation Xrotation
								JOINT RightHand
								{
									OFFSET -0.000000 22.857611 0.000000
									CHANNELS 3 Zrotation Yrotation Xrotation
									JOINT RightHandThumb1
									{
										OFFSET -2.867323 3.959563 2.944291
										CHANNELS 3 Zrotation Yrotation Xrotation
										JOINT RightHandThumb2
										{
											OFFSET 0.000000 3.350399 0.000000
											CHANNELS 3 Zrotation Yrotation Xrotation
											JOINT RightHandThumb3
											{
												OFFSET 0.000000 3.756509 -0.000000
												CHANNELS 3 Zrotation Yrotation Xrotation
												JOINT RightHandThumb4
												{
													OFFSET 0.000000 3.147345 0.000000
													CHANNELS 3 Zrotation Yrotation Xrotation
													End Site
													{
														OFFSET 0.000000 0.000000 0.000000
													}
												}
											}
										}
									}
									JOINT RightHandIndex1
									{
										OFFSET -0.086752 10.030893 2.345280
										CHANNELS 3 Zrotation Yrotation Xrotation
										JOINT RightHandIndex2
										{
											OFFSET -0.000000 4.061090 0.000000
											CHANNELS 3 Zrotation Yrotation Xrotation
											JOINT RightHandIndex3
											{
												OFFSET -0.000000 3.248873 0.000000
												CHANNELS 3 Zrotation Yrotation Xrotation
												JOINT RightHandIndex4
												{
													OFFSET 0.000000 2.639709 -0.000000
													CHANNELS 3 Zrotation Yrotation Xrotation
													End Site
													{
														OFFSET 0.000000 0.000000 0.000000
													}
												}
											}
										}
									}
									JOINT RightHandMiddle1
									{
										OFFSET 0.104102 9.502952 0.006768
										CHANNELS 3 Zrotation Yrotation Xrotation
										JOINT RightHandMiddle2
										{
											OFFSET 0.000000 4.568727 0.000000
											CHANNELS 3 Zrotation Yrotation Xrotation
											JOINT RightHandMiddle3
											{
												OFFSET 0.000000 3.654981 -0.000000
												CHANNELS 3 Zrotation Yrotation Xrotation
												JOINT RightHandMiddle4
												{
													OFFSET -0.000000 2.741236 -0.000000
													CHANNELS 3 Zrotation Yrotation Xrotation
													End Site
													{
														OFFSET 0.000000 0.000000 0.000000
													}
												}
											}
										}
									}
									JOINT RightHandRing1
									{
										OFFSET 0.086752 8.921708 -2.267442
										CHANNELS 3 Zrotation Yrotation Xrotation
										JOINT RightHandRing2
										{
											OFFSET -0.000000 4.061090 0.000000
											CHANNELS 3 Zrotation Yrotation Xrotation
											JOINT RightHandRing3
											{
												OFFSET 0.000000 3.654981 -0.000000
												CHANNELS 3 Zrotation Yrotation Xrotation
												JOINT RightHandRing4
												{
													OFFSET 0.000000 2.741236 -0.000000
													CHANNELS 3 Zrotation Yrotation Xrotation
													End Site
													{
														OFFSET 0.000000 0.000000 0.000000
													}
												}
											}
										}
									}
									JOINT RightHandPinky1
									{
										OFFSET -0.173504 7.976997 -4.467199
										CHANNELS 3 Zrotation Yrotation Xrotation
										JOINT RightHandPinky2
										{
											OFFSET 0.000000 3.350399 -0.000000
											CHANNELS 3 Zrotation Yrotation Xrotation
											JOINT RightHandPinky3
											{
												OFFSET -0.000000 2.842763 0.000000
												CHANNELS 3 Zrotation Yrotation Xrotation
												JOINT RightHandPinky4
												{
													OFFSET -0.000000 2.639709 0.000000
													CHANNELS 3 Zrotation Yrotation Xrotation
													End Site
													{
														OFFSET 0.000000 0.000000 0.000000
													}
												}
											}
										}
									}
									JOINT RightForeArmEnd
									{
										OFFSET 0.000000 0.000000 0.000000
										CHANNELS 3 Zrotation Yrotation Xrotation
										End Site
										{
											OFFSET 0.000000 0.000000 0.000000
										}
									}
								}
								JOINT RightArmEnd
								{
									OFFSET 0.000000 0.000000 0.000000
									CHANNELS 3 Zrotation Yrotation Xrotation
									End Site
									{
										OFFSET 0.000000 0.000000 0.000000
									}
								}
							}
						}
					}
					JOINT LeftShoulder
					{
						OFFSET 2.625389 11.175210 0.000000
						CHANNELS 3 Zrotation Yrotation Xrotation
						JOINT LeftArm
						{
							OFFSET 0.000000 10.813635 -0.000000
							CHANNELS 3 Zrotation Yrotation Xrotation
							JOINT LeftForeArm
							{
								OFFSET 0.000000 28.724781 0.000000
								CHANNELS 3 Zrotation Yrotation Xrotation
								JOINT LeftHand
								{
									OFFSET 0.644384 25.716167 -0.328871
									CHANNELS 3 Zrotation Yrotation Xrotation
									JOINT LeftHandThumb1
									{
										OFFSET 2.867323 3.959563 2.944291
										CHANNELS 3 Zrotation Yrotation Xrotation
										JOINT LeftHandThumb2
										{
											OFFSET 0.000000 3.350399 0.000000
											CHANNELS 3 Zrotation Yrotation Xrotation
											JOINT LeftHandThumb3
											{
												OFFSET -0.000000 3.756509 0.000000
												CHANNELS 3 Zrotation Yrotation Xrotation
												JOINT LeftHandThumb4
												{
													OFFSET -0.000000 3.100000 0.000000
													CHANNELS 3 Zrotation Yrotation Xrotation
													End Site
													{
														OFFSET 0.000000 0.000000 0.000000
													}
												}
											}
										}
									}
									JOINT LeftHandIndex1
									{
										OFFSET 0.086752 10.030893 2.345280
										CHANNELS 3 Zrotation Yrotation Xrotation
										JOINT LeftHandIndex2
										{
											OFFSET -0.000000 4.061090 -0.000000
											CHANNELS 3 Zrotation Yrotation Xrotation
											JOINT LeftHandIndex3
											{
												OFFSET 0.000000 3.248873 -0.000000
												CHANNELS 3 Zrotation Yrotation Xrotation
												JOINT LeftHandIndex4
												{
													OFFSET 0.000000 2.639709 -0.000000
													CHANNELS 3 Zrotation Yrotation Xrotation
													End Site
													{
														OFFSET 0.000000 0.000000 0.000000
													}
												}
											}
										}
									}
									JOINT LeftHandMiddle1
									{
										OFFSET -0.104102 9.502952 0.006768
										CHANNELS 3 Zrotation Yrotation Xrotation
										JOINT LeftHandMiddle2
										{
											OFFSET -0.000000 4.568727 -0.000000
											CHANNELS 3 Zrotation Yrotation Xrotation
											JOINT LeftHandMiddle3
											{
												OFFSET 0.000000 3.654981 0.000000
												CHANNELS 3 Zrotation Yrotation Xrotation
												JOINT LeftHandMiddle4
												{
													OFFSET 0.000000 2.741236 -0.000000
													CHANNELS 3 Zrotation Yrotation Xrotation
													End Site
													{
														OFFSET 0.000000 0.000000 0.000000
													}
												}
											}
										}
									}
									JOINT LeftHandRing1
									{
										OFFSET -0.086752 8.921708 -2.267442
										CHANNELS 3 Zrotation Yrotation Xrotation
										JOINT LeftHandRing2
										{
											OFFSET 0.000000 4.061090 0.000000
											CHANNELS 3 Zrotation Yrotation Xrotation
											JOINT LeftHandRing3
											{
												OFFSET 0.000000 3.654981 0.000000
												CHANNELS 3 Zrotation Yrotation Xrotation
												JOINT LeftHandRing4
												{
													OFFSET 0.000000 2.741236 0.000000
													CHANNELS 3 Zrotation Yrotation Xrotation
													End Site
													{
														OFFSET 0.000000 0.000000 0.000000
													}
												}
											}
										}
									}
									JOINT LeftHandPinky1
									{
										OFFSET 0.173504 7.976997 -4.467199
										CHANNELS 3 Zrotation Yrotation Xrotation
										JOINT LeftHandPinky2
										{
											OFFSET -0.000000 3.350399 -0.000000
											CHANNELS 3 Zrotation Yrotation Xrotation
											JOINT LeftHandPinky3
											{
												OFFSET 0.000000 2.842763 0.000000
												CHANNELS 3 Zrotation Yrotation Xrotation
												JOINT LeftHandPinky4
												{
													OFFSET -0.000000 2.639709 -0.000000
													CHANNELS 3 Zrotation Yrotation Xrotation
													End Site
													{
														OFFSET 0.000000 0.000000 0.000000
													}
												}
											}
										}
									}
									JOINT LeftForeArmEnd
									{
										OFFSET 0.000000 0.000000 0.000000
										CHANNELS 3 Zrotation Yrotation Xrotation
										End Site
										{
											OFFSET 0.000000 0.000000 0.000000
										}
									}
								}
								JOINT LeftArmEnd
								{
									OFFSET 0.000000 0.000000 0.000000
									CHANNELS 3 Zrotation Yrotation Xrotation
									End Site
									{
										OFFSET 0.000000 0.000000 0.000000
									}
								}
							}
						}
					}
				}
			}
		}
	}
	JOINT RightUpLeg
	{
		OFFSET -11.289943 0.000000 0.000000
		CHANNELS 3 Zrotation Yrotation Xrotation
		JOINT RightLeg
		{
			OFFSET 0.000000 -38.200325 0.000000
			CHANNELS 3 Zrotation Yrotation Xrotation
			JOINT RightFoot
			{
				OFFSET -0.000000 -39.900856 -0.000000
				CHANNELS 3 Zrotation Yrotation Xrotation
				JOINT RightToeBase
				{
					OFFSET 0.000000 0.000000 15.261641
					CHANNELS 3 Zrotation Yrotation Xrotation
					JOINT RightToeBaseEnd
					{
						OFFSET 0.000000 0.000000 7.370709
						CHANNELS 3 Zrotation Yrotation Xrotation
						End Site
						{
							OFFSET 0.000000 0.000000 0.000000
						}
					}
				}
				JOINT RightLegEnd
				{
					OFFSET 0.000000 0.000000 0.000000
					CHANNELS 3 Zrotation Yrotation Xrotation
					End Site
					{
						OFFSET 0.000000 0.000000 0.000000
					}
				}
			}
			JOINT RightUpLegEnd
			{
				OFFSET 0.000000 0.000000 0.000000
				CHANNELS 3 Zrotation Yrotation Xrotation
				End Site
				{
					OFFSET 0.000000 0.000000 0.000000
				}
			}
		}
	}
	JOINT LeftUpLeg
	{
		OFFSET 11.315661 -0.000000 0.000000
		CHANNELS 3 Zrotation Yrotation Xrotation
		JOINT LeftLeg
		{
			OFFSET -0.000000 -38.200325 -0.000000
			CHANNELS 3 Zrotation Yrotation Xrotation
			JOINT LeftFoot
			{
				OFFSET 0.000000 -39.900856 -0.000000
				CHANNELS 3 Zrotation Yrotation Xrotation
				JOINT LeftToeBase
				{
					OFFSET -0.000000 -0.000000 15.261641
					CHANNELS 3 Zrotation Yrotation Xrotation
					JOINT LeftToeBaseEnd
					{
						OFFSET 0.000000 -0.000000 7.539996
						CHANNELS 3 Zrotation Yrotation Xrotation
						End Site
						{
							OFFSET 0.000000 0.000000 0.000000
						}
					}
				}
				JOINT LeftLegEnd
				{
					OFFSET 0.000000 0.000000 0.000000
					CHANNELS 3 Zrotation Yrotation Xrotation
					End Site
					{
						OFFSET 0.000000 0.000000 0.000000
					}
				}
			}
			JOINT LeftUpLegEnd
			{
				OFFSET 0.000000 0.000000 0.000000
				CHANNELS 3 Zrotation Yrotation Xrotation
				End Site
				{
					OFFSET 0.000000 0.000000 0.000000
				}
			}
		}
	}
}
MOTION
Frames: 4
Frame Time: 0.016667
0.053599 88.859886 3.107447 0.490481 0.055862 -6.497332 0.023754 -0.000539 5.886370 -1.012250 0.067046 0.861970 0.478071 -2.416792 3.829567 0.155030 -0.780500 1.929224 2.330515 0.848112 5.016849 0.371683 2.117863 -3.221864 -0.714533 -0.852149 -18.222401 0.000000 0.000000 0.000000 92.418694 -0.394880 9.707912 65.456573 -33.431271 5.091406 -0.130291 12.440493 22.353239 6.882370 13.743960 -6.458578 19.861429 30.097643 62.040974 -8.462701 -12.164348 -20.450144 -6.325801 -8.139122 -14.332924 0.000000 0.000000 0.000000 12.621688 -10.712396 0.231899 8.905269 0.376633 1.323778 8.902945 -0.111869 1.243825 0.000000 0.000000 0.000000 11.194713 -5.446730 -1.239449 7.889823 0.455857 0.481039 7.889222 -0.037052 0.412494 0.000000 0.000000 0.000000 10.912717 2.564455 -1.535874 7.825817 -0.947299 -0.611652 7.824722 0.070320 -0.477096 0.000000 0.000000 0.000000 9.631022 11.185607 -2.805182 7.161172 -1.900893 -1.652070 7.157181 0.085565 -1.400512 0.000000 0.000000 0.000000 0.000000 0.000000 0.000000 0.000000 0.000000 0.000000 -90.370071 0.051974 5.208683 -71.842018 19.306828 -7.574249 -0.664994 -8.642401 40.885647 -0.139946 -25.486511 -15.477552 -20.250540 -29.996990 61.691063 8.807010 12.918287 -21.553112 6.618044 8.635277 -15.110494 0.000000 0.000000 0.000000 -16.168392 -5.636370 -1.918335 -11.569428 0.324957 -1.715407 -11.569072 -0.164917 -1.615128 0.000000 0.000000 0.000000 -15.643335 -0.758781 -1.694552 -11.169063 0.440303 -0.678956 -11.168735 -0.058746 -0.582722 0.000000 0.000000 0.000000 -18.003109 7.607869 -1.025503 -12.703986 -0.874371 0.992852 -12.702737 0.099213 0.772902 0.000000 0.000000 0.000000 -18.852142 16.262062 -0.245862 -13.102126 -1.657223 2.980032 -13.096694 0.281077 2.526406 0.000000 0.000000 0.000000 0.000000 0.000000 0.000000 0.000000 0.000000 0.000000 -1.045058 -10.518975 11.869204 -0.078405 -0.635030 3.758801 -2.197730 -7.901679 18.681496 -0.890004 0.828132 -18.870453 0.000000 0.000000 0.000000 0.000000 0.000000 0.000000 0.000000 0.000000 0.000000 -1.784023 -6.543907 7.474547 0.053202 0.398207 7.545935 3.843466 -1.785134 17.966772 0.194973 -0.390531 -20.817129 0.000000 0.000000 0.000000 0.000000 0.000000 0.000000 0.000000 0.000000 0.000000 
0.117274 88.900360 2.900131 -0.272758 -0.296091 -7.300577 1.310557 -0.188700 6.641403 -1.000696 0.129393 2.677479 0.775354 -1.628446 1.548677 -0.883901 -0.171956 3.044615 1.398414 2.281394 3.138149 0.315063 2.947485 -3.824833 -1.029166 -0.537132 -18.420868 0.000000 0.000000 0.000000 93.018517 -0.450091 9.593547 65.080009 -32.149284 3.946296 -0.130173 12.989984 23.174191 6.826326 13.358786 -6.816328 19.887041 30.092834 62.065659 -8.437391 -12.100850 -20.464947 -6.298315 -8.110530 -14.297513 0.000000 0.000000 0.000000 12.073225 -10.755144 -0.293611 8.989055 0.323037 1.355152 8.779446 -0.118021 1.286924 0.000000 0.000000 0.000000 10.890906 -5.359947 -1.096804 7.651309 0.417797 0.528941 8.025363 -0.056982 0.452320 0.000000 0.000000 0.000000 10.330941 2.575719 -0.831350 7.469839 -0.882402 -0.866322 7.504279 0.072776 -0.636938 0.000000 0.000000 0.000000 9.609482 11.053786 -1.775858 7.166159 -1.630735 -2.466236 6.751652 0.293532 -2.080297 0.000000 0.000000 0.000000 0.000000 0.000000 0.000000 0.000000 0.000000 0.000000 -89.909302 0.117326 6.038169 -71.677414 19.643600 -6.531013 -1.221360 -9.010703 40.427433 1.926287 -23.292114 -16.082226 -20.252569 -29.969229 61.607414 8.875813 12.963961 -21.697699 6.648605 8.677090 -15.168818 0.000000 0.000000 0.000000 -17.253305 -5.500114 -0.226354 -11.043593 0.285295 -1.415138 -11.158303 -0.177550 -1.305454 0.000000 0.000000 0.000000 -16.596596 -0.508943 -0.986663 -10.932916 0.405061 -0.596811 -10.845578 -0.069911 -0.479591 0.000000 0.000000 0.000000 -18.734453 7.547721 -0.768007 -12.451744 -0.864483 0.856041 -12.429186 0.088454 0.665256 0.000000 0.000000 0.000000 -19.955069 15.973556 -1.141318 -13.022148 -1.535116 2.660686 -12.874885 0.356401 2.260771 0.000000 0.000000 0.000000 0.000000 0.000000 0.000000 0.000000 0.000000 0.000000 0.135245 -9.189329 11.029440 -0.047902 -0.636274 6.177953 -2.892521 -9.090263 17.689671 -0.791206 0.742350 -19.053110 0.000000 0.000000 0.000000 0.000000 0.000000 0.000000 0.000000 0.000000 0.000000 -1.558024 -6.293003 7.136248 0.057403 0.363541 8.509193 3.781003 -0.607810 17.016392 0.388308 -0.472019 -20.528303 0.000000 0.000000 0.000000 0.000000 0.000000 0.000000 0.000000 0.000000 0.000000 
0.118842 88.881584 2.885365 -0.282648 -0.345309 -7.368380 1.300259 -0.176622 6.683681 -0.942886 0.119094 2.651027 0.768622 -1.597748 1.644544 -0.867320 -0.149007 3.063640 1.309692 2.201761 3.088028 0.299638 2.856755 -3.814036 -1.033140 -0.573305 -18.379999 0.000000 0.000000 0.000000 92.929497 -0.444804 9.551303 65.083374 -32.367870 4.013105 -0.088926 12.992067 23.179262 6.646356 13.059475 -6.799069 19.871454 30.093552 62.069527 -8.436561 -12.083242 -20.442404 -6.298882 -8.095050 -14.279449 0.000000 0.000000 0.000000 12.040184 -10.748427 -0.331749 8.982351 0.322210 1.353370 8.785305 -0.116668 1.281811 0.000000 0.000000 0.000000 10.895643 -5.352824 -1.105939 7.662488 0.415849 0.526884 8.039021 -0.057564 0.451560 0.000000 0.000000 0.000000 10.370027 2.558733 -0.822295 7.532378 -0.880111 -0.862735 7.561825 0.071624 -0.632969 0.000000 0.000000 0.000000 9.621282 11.027470 -1.717333 7.181005 -1.629342 -2.465051 6.783360 0.292097 -2.069390 0.000000 0.000000 0.000000 0.000000 0.000000 0.000000 0.000000 0.000000 0.000000 -89.856186 0.112472 6.080506 -71.811188 19.826719 -6.495074 -1.214632 -9.017799 40.481236 2.136726 -23.109434 -16.127882 -20.236414 -29.976866 61.623577 8.853544 12.930325 -21.646748 6.631791 8.650995 -15.132469 0.000000 0.000000 0.000000 -17.129225 -5.546142 -0.341777 -11.103424 0.284215 -1.409800 -11.205990 -0.175762 -1.302348 0.000000 0.000000 0.000000 -16.488226 -0.539841 -1.066223 -11.000085 0.404306 -0.597824 -10.908552 -0.070654 -0.481350 0.000000 0.000000 0.000000 -18.669382 7.536556 -0.856863 -12.532118 -0.863687 0.858340 -12.487826 0.088681 0.666681 0.000000 0.000000 0.000000 -19.912807 15.973344 -1.235569 -13.065092 -1.535868 2.643762 -12.898752 0.353349 2.258165 0.000000 0.000000 0.000000 0.000000 0.000000 0.000000 0.000000 0.000000 0.000000 0.111722 -9.139832 11.121010 -0.048205 -0.638804 6.116965 -2.833314 -9.085981 17.703291 -0.794425 0.740734 -19.046835 0.000000 0.000000 0.000000 0.000000 0.000000 0.000000 0.000000 0.000000 0.000000 -1.552724 -6.220477 7.123507 0.056321 0.354574 8.573333 3.793018 -0.573727 17.026926 0.374826 -0.478233 -20.551878 0.000000 0.000000 0.000000 0.000000 0.000000 0.000000 0.000000 0.000000 0.000000 
0.121774 88.868965 2.884212 -0.292147 -0.390395 -7.439304 1.293788 -0.166395 6.690290 -0.926142 0.119331 2.632476 0.783329 -1.595972 1.695099 -0.853209 -0.129598 3.102129 1.239468 2.172706 3.026845 0.313419 2.822993 -3.806059 -1.035636 -0.595283 -18.347584 0.000000 0.000000 0.000000 92.832184 -0.447687 9.518787 65.196022 -32.309376 3.950264 -0.086792 12.981200 23.292274 6.627914 12.792065 -6.756211 19.871902 30.093416 62.064865 -8.441569 -12.093883 -20.456984 -6.302210 -8.095619 -14.287878 0.000000 0.000000 0.000000 12.044244 -10.759307 -0.331838 9.040860 0.322074 1.348330 8.850723 -0.116215 1.274031 0.000000 0.000000 0.000000 10.911856 -5.353960 -1.095308 7.720614 0.415184 0.524005 8.095463 -0.057303 0.448568 0.000000 0.000000 0.000000 10.391060 2.559510 -0.789162 7.602941 -0.878899 -0.861906 7.628041 0.071480 -0.630771 0.000000 0.000000 0.000000 9.615727 11.033097 -1.629333 7.210036 -1.625671 -2.477486 6.822595 0.295645 -2.077559 0.000000 0.000000 0.000000 0.000000 0.000000 0.000000 0.000000 0.000000 0.000000 -89.804871 0.112911 6.092593 -71.974030 19.865711 -6.523633 -1.176243 -9.015773 40.485493 2.197527 -23.012293 -15.985161 -20.236303 -29.979864 61.626942 8.846939 12.917341 -21.641314 6.627121 8.646065 -15.123379 0.000000 0.000000 0.000000 -17.074778 -5.580586 -0.323115 -11.132825 0.283195 -1.404626 -11.218740 -0.175505 -1.299441 0.000000 0.000000 0.000000 -16.429996 -0.559109 -1.046055 -11.038950 0.403395 -0.596918 -10.951728 -0.071439 -0.480703 0.000000 0.000000 0.000000 -18.674850 7.533053 -0.826427 -12.583958 -0.863045 0.864743 -12.540615 0.089086 0.669670 0.000000 0.000000 0.000000 -19.961634 15.973455 -1.233601 -13.115904 -1.531971 2.662130 -12.926939 0.359766 2.279243 0.000000 0.000000 0.000000 0.000000 0.000000 0.000000 0.000000 0.000000 0.000000 0.093944 -9.091345 11.210555 -0.048156 -0.636604 6.101215 -2.785277 -9.092163 17.722996 -0.799380 0.740796 -19.043692 0.000000 0.000000 0.000000 0.000000 0.000000 0.000000 0.000000 0.000000 0.000000 -1.546601 -6.172622 7.109920 0.055633 0.350688 8.667527 3.810388 -0.551689 17.022476 0.367246 -0.481999 -20.557375 0.000000 0.000000 0.000000 0.000000 0.000000 0.000000 0.000000 0.000000 0.000000 
